<?xml version="1.0" encoding="UTF-8" standalone="no"?>
<svg width="26px" height="31px" viewBox="0 0 26 31" version="1.1" xmlns="http://www.w3.org/2000/svg" xmlns:sketch="http://www.bohemiancoding.com/sketch/ns">
    <!-- Generator: Sketch 3.5.1 (25234) - http://www.bohemiancoding.com/sketch -->
    <title>safeguard-updating</title>
    <desc>Created with Sketch.</desc>
    <defs></defs>
    <g id="Page-1" stroke="none" stroke-width="1" fill="none" fill-rule="evenodd" sketch:type="MSPage">
        <g id="slices" sketch:type="MSArtboardGroup" transform="translate(-44.000000, -89.000000)" fill="#9ABC60">
            <path d="M70,102.598183 L70,94.0114594 L57,89 L44,94.0114594 L44,102.598183 C44,110.667267 49.5058824,118.127364 57,120 C64.4941176,118.127364 70,110.667267 70,102.598183 Z M61.8528181,103.767998 C61.8528181,101.296576 59.6346601,99.2282321 57,99.2282321 C56.078022,99.2282321 55.201214,99.4826427 54.4317975,99.9589382 C53.9959698,100.234198 53.4411219,100.167349 53.0734057,99.7996325 C52.5728357,99.2990625 52.6762835,98.4567016 53.278057,98.0403702 C54.374239,97.3552565 55.6633774,96.9848144 57,96.9848144 C60.8699252,96.9848144 64.0719372,100.134598 64.0719372,103.759719 L64.8730349,103.741107 C65.3260031,103.741107 65.572025,104.255516 65.3042501,104.612455 L65.1190612,104.871709 C64.6287811,105.569415 64.081985,106.229342 63.4764898,106.853723 C63.2007315,107.182256 62.7298013,107.182256 62.470392,106.870037 C61.8846285,106.265968 61.3378031,105.611647 60.8124065,104.891641 L60.6291627,104.635002 C60.3585078,104.274129 60.6045298,103.759719 61.0574979,103.759719 L61.8528181,103.767998 Z M59.5682025,108.184641 C59.9954147,107.914823 60.546996,107.987924 60.9265943,108.343947 C61.4346255,108.851978 61.3359387,109.702203 60.721943,110.065984 C59.625761,110.751098 58.3366226,111.12154 57.0020865,111.12153 C53.1556008,111.159803 49.9223725,107.803892 49.9223725,104.38386 L49.1269651,104.402473 C48.6739969,104.402473 48.427975,103.888063 48.6957499,103.531124 L48.8809388,103.27187 C49.3342752,102.626738 49.8724261,101.982797 50.5235102,101.289856 C50.7992685,100.961324 51.2701987,100.961324 51.529608,101.273543 C52.1153715,101.877611 52.6621969,102.531932 53.1875935,103.251939 L53.3708373,103.508577 C53.6414922,103.869451 53.3954702,104.38386 52.9425021,104.38386 L52.1429004,104.38386 C52.1429004,106.657786 54.3653399,108.915347 57,108.915347 C57.921978,108.915347 58.798786,108.660937 59.5682025,108.184641 Z" id="Shape" sketch:type="MSShapeGroup"></path>
        </g>
    </g>
</svg>