<?xml version="1.0" encoding="UTF-8" standalone="no"?>
<svg width="26px" height="31px" viewBox="0 0 26 31" version="1.1" xmlns="http://www.w3.org/2000/svg" xmlns:sketch="http://www.bohemiancoding.com/sketch/ns">
    <!-- Generator: Sketch 3.5.1 (25234) - http://www.bohemiancoding.com/sketch -->
    <title>safeguard-active</title>
    <desc>Created with Sketch.</desc>
    <defs></defs>
    <g id="Page-1" stroke="none" stroke-width="1" fill="none" fill-rule="evenodd" sketch:type="MSPage">
        <g id="slices" sketch:type="MSArtboardGroup" transform="translate(-44.000000, -39.000000)" fill="#9ABC60">
            <path d="M70,52.5981829 L70,44.0114594 L57,39 L44,44.0114594 L44,52.5981829 C44,60.6672669 49.5058824,68.1273635 57,70 C64.4941176,68.1273635 70,60.6672669 70,52.5981829 Z M54.9122737,60.0237664 L64.0717195,49.7089358 C64.5569777,49.1624665 64.5073563,48.3260861 63.960887,47.8408279 C63.4144176,47.3555697 62.5780372,47.4051911 62.092779,47.9516604 L54.8004377,56.1947084 L52.1852044,53.6132889 C51.665082,53.0998915 50.8272486,53.1053432 50.3138511,53.6254656 C49.8004537,54.145588 49.8059054,54.9834214 50.3260278,55.4968188 L54.9122737,60.0237664 Z" id="Shape" sketch:type="MSShapeGroup"></path>
        </g>
    </g>
</svg>