<?xml version="1.0" encoding="UTF-8" standalone="no"?>
<svg width="26px" height="31px" viewBox="0 0 26 31" version="1.1" xmlns="http://www.w3.org/2000/svg">
    <!-- Generator: Sketch 3.6.1 (26313) - http://www.bohemiancoding.com/sketch -->
    <title>published</title>
    <desc>Created with Sketch.</desc>
    <defs></defs>
    <g id="Page-1" stroke="none" stroke-width="1" fill="none" fill-rule="evenodd">
        <g id="slices" transform="translate(-45.000000, -235.000000)" fill="#9ABC60">
            <path d="M58.0053237,237.130547 L47,241.371648 L47,248.589152 C47,255.792391 51.6436849,262.379112 58.0201062,263.913547 C63.8390923,262.379112 69,255.605452 69,248.589152 L69.0131141,241.375239 L58.0053237,237.130547 Z M58,265.980896 C50.5058824,264.109343 45,256.653565 45,248.589152 L45,240.007399 L58,234.99884 L71,240.007399 L71,248.589152 C71,256.653565 65.4941176,264.109343 58,265.980896 Z M56.3660869,256.32508 L65.0014153,246.666874 C65.4980019,246.107648 65.4472221,245.251742 64.8879954,244.755155 C64.3287686,244.258568 63.4728627,244.309348 62.9762761,244.868575 L56.2516401,252.406632 L53.9624295,250.175722 C53.4301647,249.650339 52.5727719,249.655918 52.0473891,250.188183 C51.5220063,250.720448 51.5275853,251.57784 52.05985,252.103223 L56.3660869,256.32508 Z" id="Combined-Shape"></path>
        </g>
    </g>
</svg>